<svg id="visual" viewBox="0 0 900 600" width="900" height="600" xmlns="http://www.w3.org/2000/svg" xmlns:xlink="http://www.w3.org/1999/xlink" version="1.1"><path d="M0 79L129 55L257 61L386 85L514 49L643 79L771 97L900 37L900 0L771 0L643 0L514 0L386 0L257 0L129 0L0 0Z" fill="#009473"></path><path d="M0 211L129 157L257 265L386 259L514 199L643 163L771 265L900 157L900 35L771 95L643 77L514 47L386 83L257 59L129 53L0 77Z" fill="#009d6e"></path><path d="M0 289L129 223L257 325L386 307L514 307L643 283L771 361L900 229L900 155L771 263L643 161L514 197L386 257L257 263L129 155L0 209Z" fill="#13a667"></path><path d="M0 325L129 277L257 361L386 361L514 331L643 337L771 403L900 265L900 227L771 359L643 281L514 305L386 305L257 323L129 221L0 287Z" fill="#2aaf5d"></path><path d="M0 379L129 325L257 391L386 409L514 373L643 367L771 457L900 301L900 263L771 401L643 335L514 329L386 359L257 359L129 275L0 323Z" fill="#40b750"></path><path d="M0 433L129 361L257 421L386 451L514 427L643 397L771 481L900 349L900 299L771 455L643 365L514 371L386 407L257 389L129 323L0 377Z" fill="#56bf41"></path><path d="M0 559L129 535L257 535L386 541L514 553L643 565L771 565L900 529L900 347L771 479L643 395L514 425L386 449L257 419L129 359L0 431Z" fill="#6cc62c"></path><path d="M0 601L129 601L257 601L386 601L514 601L643 601L771 601L900 601L900 527L771 563L643 563L514 551L386 539L257 533L129 533L0 557Z" fill="#84cc00"></path></svg>